<mxfile host="app.diagrams.net" modified="2024-06-19T14:49:45.957Z" agent="Mozilla/5.0 (Windows NT 10.0; Win64; x64; rv:128.0) Gecko/20100101 Firefox/128.0" etag="OsAQhE3pBSgPgfexTfir" version="24.5.5" type="github">
  <diagram name="PÃ¡gina-1" id="51rEXodWAGBUiOY_3KAo">
    <mxGraphModel dx="1434" dy="782" grid="1" gridSize="10" guides="1" tooltips="1" connect="1" arrows="1" fold="1" page="1" pageScale="1" pageWidth="827" pageHeight="1169" math="0" shadow="0">
      <root>
        <mxCell id="0" />
        <mxCell id="1" parent="0" />
        <mxCell id="s_aopgCWfymDlKPRJCi_-3" value="" style="edgeStyle=orthogonalEdgeStyle;rounded=0;orthogonalLoop=1;jettySize=auto;html=1;" edge="1" parent="1" source="GDrdqHJlu2vH658eeDwN-4" target="GDrdqHJlu2vH658eeDwN-6">
          <mxGeometry relative="1" as="geometry" />
        </mxCell>
        <mxCell id="s_aopgCWfymDlKPRJCi_-47" value="" style="edgeStyle=orthogonalEdgeStyle;rounded=0;orthogonalLoop=1;jettySize=auto;html=1;" edge="1" parent="1" source="GDrdqHJlu2vH658eeDwN-4" target="s_aopgCWfymDlKPRJCi_-41">
          <mxGeometry relative="1" as="geometry" />
        </mxCell>
        <mxCell id="GDrdqHJlu2vH658eeDwN-4" value="Actor" style="shape=umlActor;verticalLabelPosition=bottom;verticalAlign=top;html=1;outlineConnect=0;" parent="1" vertex="1">
          <mxGeometry x="40" y="160" width="30" height="60" as="geometry" />
        </mxCell>
        <mxCell id="s_aopgCWfymDlKPRJCi_-37" value="" style="edgeStyle=orthogonalEdgeStyle;rounded=0;orthogonalLoop=1;jettySize=auto;html=1;" edge="1" parent="1" source="GDrdqHJlu2vH658eeDwN-6" target="s_aopgCWfymDlKPRJCi_-10">
          <mxGeometry relative="1" as="geometry" />
        </mxCell>
        <mxCell id="GDrdqHJlu2vH658eeDwN-6" value="USUARIO" style="ellipse;whiteSpace=wrap;html=1;" parent="1" vertex="1">
          <mxGeometry x="130" y="155" width="120" height="70" as="geometry" />
        </mxCell>
        <mxCell id="s_aopgCWfymDlKPRJCi_-34" value="" style="edgeStyle=orthogonalEdgeStyle;rounded=0;orthogonalLoop=1;jettySize=auto;html=1;" edge="1" parent="1" source="GDrdqHJlu2vH658eeDwN-8" target="GDrdqHJlu2vH658eeDwN-16">
          <mxGeometry relative="1" as="geometry" />
        </mxCell>
        <mxCell id="GDrdqHJlu2vH658eeDwN-8" value="ACL" style="ellipse;whiteSpace=wrap;html=1;" parent="1" vertex="1">
          <mxGeometry x="250" y="50" width="90" height="50" as="geometry" />
        </mxCell>
        <mxCell id="s_aopgCWfymDlKPRJCi_-17" style="edgeStyle=orthogonalEdgeStyle;rounded=0;orthogonalLoop=1;jettySize=auto;html=1;" edge="1" parent="1" source="GDrdqHJlu2vH658eeDwN-11">
          <mxGeometry relative="1" as="geometry">
            <mxPoint x="600" y="360" as="targetPoint" />
          </mxGeometry>
        </mxCell>
        <mxCell id="GDrdqHJlu2vH658eeDwN-11" value="suporte" style="ellipse;whiteSpace=wrap;html=1;" parent="1" vertex="1">
          <mxGeometry x="147.5" y="490" width="85" height="50" as="geometry" />
        </mxCell>
        <mxCell id="s_aopgCWfymDlKPRJCi_-14" style="edgeStyle=orthogonalEdgeStyle;rounded=0;orthogonalLoop=1;jettySize=auto;html=1;" edge="1" parent="1">
          <mxGeometry relative="1" as="geometry">
            <mxPoint x="390" y="160" as="targetPoint" />
            <mxPoint x="390" y="160" as="sourcePoint" />
          </mxGeometry>
        </mxCell>
        <mxCell id="s_aopgCWfymDlKPRJCi_-32" style="edgeStyle=orthogonalEdgeStyle;rounded=0;orthogonalLoop=1;jettySize=auto;html=1;entryX=0;entryY=0.5;entryDx=0;entryDy=0;" edge="1" parent="1" source="GDrdqHJlu2vH658eeDwN-13" target="GDrdqHJlu2vH658eeDwN-14">
          <mxGeometry relative="1" as="geometry">
            <mxPoint x="420" y="80" as="targetPoint" />
            <Array as="points">
              <mxPoint x="395" y="80" />
              <mxPoint x="450" y="80" />
            </Array>
          </mxGeometry>
        </mxCell>
        <mxCell id="s_aopgCWfymDlKPRJCi_-33" value="" style="edgeStyle=orthogonalEdgeStyle;rounded=0;orthogonalLoop=1;jettySize=auto;html=1;entryX=0;entryY=0.5;entryDx=0;entryDy=0;exitX=0.5;exitY=1;exitDx=0;exitDy=0;" edge="1" parent="1" source="GDrdqHJlu2vH658eeDwN-13" target="GDrdqHJlu2vH658eeDwN-15">
          <mxGeometry relative="1" as="geometry">
            <mxPoint x="390" y="206" as="sourcePoint" />
            <mxPoint x="440" y="230" as="targetPoint" />
          </mxGeometry>
        </mxCell>
        <mxCell id="GDrdqHJlu2vH658eeDwN-13" value="genero" style="ellipse;whiteSpace=wrap;html=1;" parent="1" vertex="1">
          <mxGeometry x="350" y="120" width="90" height="50" as="geometry" />
        </mxCell>
        <mxCell id="s_aopgCWfymDlKPRJCi_-30" value="" style="edgeStyle=orthogonalEdgeStyle;rounded=0;orthogonalLoop=1;jettySize=auto;html=1;" edge="1" parent="1" target="s_aopgCWfymDlKPRJCi_-29">
          <mxGeometry relative="1" as="geometry">
            <mxPoint x="680" y="280" as="sourcePoint" />
          </mxGeometry>
        </mxCell>
        <mxCell id="GDrdqHJlu2vH658eeDwN-14" value="filme" style="ellipse;whiteSpace=wrap;html=1;" parent="1" vertex="1">
          <mxGeometry x="450" y="50" width="100" height="55" as="geometry" />
        </mxCell>
        <mxCell id="s_aopgCWfymDlKPRJCi_-31" value="" style="edgeStyle=orthogonalEdgeStyle;rounded=0;orthogonalLoop=1;jettySize=auto;html=1;entryX=1;entryY=0.5;entryDx=0;entryDy=0;" edge="1" parent="1" source="GDrdqHJlu2vH658eeDwN-15" target="GDrdqHJlu2vH658eeDwN-14">
          <mxGeometry relative="1" as="geometry">
            <mxPoint x="570" y="70" as="targetPoint" />
            <Array as="points">
              <mxPoint x="570" y="206" />
              <mxPoint x="570" y="78" />
            </Array>
          </mxGeometry>
        </mxCell>
        <mxCell id="GDrdqHJlu2vH658eeDwN-15" value="serie" style="ellipse;whiteSpace=wrap;" parent="1" vertex="1">
          <mxGeometry x="450" y="182.5" width="100" height="47.5" as="geometry" />
        </mxCell>
        <mxCell id="s_aopgCWfymDlKPRJCi_-35" value="" style="edgeStyle=orthogonalEdgeStyle;rounded=0;orthogonalLoop=1;jettySize=auto;html=1;" edge="1" parent="1" source="GDrdqHJlu2vH658eeDwN-16">
          <mxGeometry relative="1" as="geometry">
            <mxPoint x="180" y="150" as="targetPoint" />
            <Array as="points">
              <mxPoint x="180" y="140" />
              <mxPoint x="180" y="140" />
            </Array>
          </mxGeometry>
        </mxCell>
        <mxCell id="GDrdqHJlu2vH658eeDwN-16" value="perfil" style="ellipse;whiteSpace=wrap;html=1;" parent="1" vertex="1">
          <mxGeometry x="140" y="50" width="80" height="50" as="geometry" />
        </mxCell>
        <mxCell id="GDrdqHJlu2vH658eeDwN-17" value="financeiro" style="ellipse;whiteSpace=wrap;html=1;" parent="1" vertex="1">
          <mxGeometry x="240" y="330" width="100" height="60" as="geometry" />
        </mxCell>
        <mxCell id="s_aopgCWfymDlKPRJCi_-21" value="" style="edgeStyle=orthogonalEdgeStyle;rounded=0;orthogonalLoop=1;jettySize=auto;html=1;" edge="1" parent="1" source="GDrdqHJlu2vH658eeDwN-18" target="GDrdqHJlu2vH658eeDwN-17">
          <mxGeometry relative="1" as="geometry" />
        </mxCell>
        <mxCell id="GDrdqHJlu2vH658eeDwN-18" value="contas a pagar" style="ellipse;whiteSpace=wrap;html=1;" parent="1" vertex="1">
          <mxGeometry x="245" y="440" width="90" height="50" as="geometry" />
        </mxCell>
        <mxCell id="GDrdqHJlu2vH658eeDwN-19" value="&lt;div&gt;Plano&lt;br&gt;&lt;/div&gt;" style="ellipse;whiteSpace=wrap;html=1;" parent="1" vertex="1">
          <mxGeometry x="540" y="292.5" width="110" height="65" as="geometry" />
        </mxCell>
        <mxCell id="s_aopgCWfymDlKPRJCi_-5" value="catalogo" style="ellipse;whiteSpace=wrap;html=1;" vertex="1" parent="1">
          <mxGeometry x="600" y="117.5" width="100" height="55" as="geometry" />
        </mxCell>
        <mxCell id="s_aopgCWfymDlKPRJCi_-45" value="" style="edgeStyle=orthogonalEdgeStyle;rounded=0;orthogonalLoop=1;jettySize=auto;html=1;" edge="1" parent="1" source="s_aopgCWfymDlKPRJCi_-9">
          <mxGeometry relative="1" as="geometry">
            <mxPoint x="240" y="463" as="targetPoint" />
          </mxGeometry>
        </mxCell>
        <mxCell id="s_aopgCWfymDlKPRJCi_-9" value="marketing" style="ellipse;whiteSpace=wrap;html=1;" vertex="1" parent="1">
          <mxGeometry x="20" y="435" width="100" height="55" as="geometry" />
        </mxCell>
        <mxCell id="s_aopgCWfymDlKPRJCi_-38" value="" style="edgeStyle=orthogonalEdgeStyle;rounded=0;orthogonalLoop=1;jettySize=auto;html=1;" edge="1" parent="1" source="s_aopgCWfymDlKPRJCi_-10" target="GDrdqHJlu2vH658eeDwN-11">
          <mxGeometry relative="1" as="geometry" />
        </mxCell>
        <mxCell id="s_aopgCWfymDlKPRJCi_-10" value="plano" style="ellipse;whiteSpace=wrap;html=1;" vertex="1" parent="1">
          <mxGeometry x="145" y="260" width="90" height="55" as="geometry" />
        </mxCell>
        <mxCell id="s_aopgCWfymDlKPRJCi_-20" value="" style="edgeStyle=orthogonalEdgeStyle;rounded=0;orthogonalLoop=1;jettySize=auto;html=1;" edge="1" parent="1" source="s_aopgCWfymDlKPRJCi_-11" target="GDrdqHJlu2vH658eeDwN-17">
          <mxGeometry relative="1" as="geometry" />
        </mxCell>
        <mxCell id="s_aopgCWfymDlKPRJCi_-11" value="contas a receber" style="ellipse;whiteSpace=wrap;html=1;" vertex="1" parent="1">
          <mxGeometry x="370" y="332.5" width="100" height="55" as="geometry" />
        </mxCell>
        <mxCell id="s_aopgCWfymDlKPRJCi_-23" value="" style="endArrow=classic;html=1;rounded=0;exitX=0.717;exitY=0.986;exitDx=0;exitDy=0;exitPerimeter=0;" edge="1" parent="1" source="GDrdqHJlu2vH658eeDwN-6" target="GDrdqHJlu2vH658eeDwN-17">
          <mxGeometry width="50" height="50" relative="1" as="geometry">
            <mxPoint x="220" y="270" as="sourcePoint" />
            <mxPoint x="216" y="330" as="targetPoint" />
          </mxGeometry>
        </mxCell>
        <mxCell id="s_aopgCWfymDlKPRJCi_-29" value="filme" style="ellipse;whiteSpace=wrap;html=1;" vertex="1" parent="1">
          <mxGeometry x="710" y="282.5" width="100" height="55" as="geometry" />
        </mxCell>
        <mxCell id="s_aopgCWfymDlKPRJCi_-40" value="filme" style="ellipse;whiteSpace=wrap;html=1;" vertex="1" parent="1">
          <mxGeometry x="410" y="550" width="100" height="55" as="geometry" />
        </mxCell>
        <mxCell id="s_aopgCWfymDlKPRJCi_-44" value="" style="edgeStyle=orthogonalEdgeStyle;rounded=0;orthogonalLoop=1;jettySize=auto;html=1;" edge="1" parent="1" source="s_aopgCWfymDlKPRJCi_-41" target="s_aopgCWfymDlKPRJCi_-9">
          <mxGeometry relative="1" as="geometry" />
        </mxCell>
        <mxCell id="s_aopgCWfymDlKPRJCi_-41" value="RH" style="ellipse;whiteSpace=wrap;html=1;" vertex="1" parent="1">
          <mxGeometry x="30" y="302.5" width="80" height="50" as="geometry" />
        </mxCell>
      </root>
    </mxGraphModel>
  </diagram>
</mxfile>
